M48
; DRILL file {KiCad (6.0.9-0)} date Monday, January 30, 2023 at 07:32:19 PM
; FORMAT={-:-/ absolute / inch / decimal}
; #@! TF.CreationDate,2023-01-30T19:32:19-05:00
; #@! TF.GenerationSoftware,Kicad,Pcbnew,(6.0.9-0)
; #@! TF.FileFunction,Plated,1,2,PTH
FMAT,2
INCH
; #@! TA.AperFunction,Plated,PTH,ComponentDrill
T1C0.0315
; #@! TA.AperFunction,Plated,PTH,ComponentDrill
T2C0.0354
; #@! TA.AperFunction,Plated,PTH,ComponentDrill
T3C0.0394
; #@! TA.AperFunction,Plated,PTH,ComponentDrill
T4C0.0433
; #@! TA.AperFunction,Plated,PTH,ComponentDrill
T5C0.0472
%
G90
G05
T1
X5.8022Y-2.04
X5.94Y-2.04
X6.5096Y-2.9104
X6.5096Y-3.0104
X6.5096Y-3.1104
X6.5096Y-3.2104
X6.8096Y-2.9104
X6.8096Y-3.0104
X6.8096Y-3.1104
X6.8096Y-3.2104
T2
X7.1798Y-3.15
X7.2798Y-3.15
T3
X5.7102Y-2.475
X5.8102Y-2.475
T4
X7.305Y-2.14
X7.305Y-2.54
X7.48Y-2.14
X7.48Y-2.54
T5
X5.585Y-2.83
X5.585Y-3.015
X5.585Y-3.2001
X6.285Y-2.04
X6.285Y-2.235
X6.285Y-2.42
X6.285Y-2.6
X6.45Y-3.41
X6.935Y-3.415
X7.085Y-2.04
X7.085Y-2.235
X7.085Y-2.42
X7.085Y-2.6
X7.185Y-1.73
X7.205Y-2.76
X7.64Y-2.54
X7.64Y-3.34
X7.85Y-2.53
X7.85Y-3.33
T0
M30
