%TF.GenerationSoftware,KiCad,Pcbnew,(6.0.9-0)*%
%TF.CreationDate,2023-01-30T19:32:23-05:00*%
%TF.ProjectId,LM741_Tester,4c4d3734-315f-4546-9573-7465722e6b69,rev?*%
%TF.SameCoordinates,Original*%
%TF.FileFunction,Copper,L1,Top*%
%TF.FilePolarity,Positive*%
%FSLAX46Y46*%
G04 Gerber Fmt 4.6, Leading zero omitted, Abs format (unit mm)*
G04 Created by KiCad (PCBNEW (6.0.9-0)) date 2023-01-30 19:32:23*
%MOMM*%
%LPD*%
G01*
G04 APERTURE LIST*
%TA.AperFunction,ComponentPad*%
%ADD10C,2.500000*%
%TD*%
%TA.AperFunction,SMDPad,CuDef*%
%ADD11R,5.000000X10.000000*%
%TD*%
%TA.AperFunction,ComponentPad*%
%ADD12C,2.400000*%
%TD*%
%TA.AperFunction,ComponentPad*%
%ADD13C,1.600000*%
%TD*%
%TA.AperFunction,ComponentPad*%
%ADD14R,1.600000X1.600000*%
%TD*%
%TA.AperFunction,ComponentPad*%
%ADD15R,1.700000X1.700000*%
%TD*%
%TA.AperFunction,ComponentPad*%
%ADD16O,1.700000X1.700000*%
%TD*%
%TA.AperFunction,ComponentPad*%
%ADD17R,1.800000X1.800000*%
%TD*%
%TA.AperFunction,ComponentPad*%
%ADD18C,1.800000*%
%TD*%
%TA.AperFunction,ComponentPad*%
%ADD19R,2.400000X1.600000*%
%TD*%
%TA.AperFunction,ComponentPad*%
%ADD20O,2.400000X1.600000*%
%TD*%
%TA.AperFunction,ComponentPad*%
%ADD21O,2.400000X2.400000*%
%TD*%
%TA.AperFunction,ComponentPad*%
%ADD22R,2.200000X2.200000*%
%TD*%
%TA.AperFunction,ComponentPad*%
%ADD23O,2.200000X2.200000*%
%TD*%
%TA.AperFunction,Conductor*%
%ADD24C,2.000000*%
%TD*%
G04 APERTURE END LIST*
D10*
%TO.P,REF2a,1*%
%TO.N,GND*%
X163830000Y-86614000D03*
%TD*%
D11*
%TO.P,REF3b,1*%
%TO.N,GND*%
X137795000Y-63500000D03*
%TD*%
D10*
%TO.P,REF1a,1*%
%TO.N,Net-(R2-Pad1)*%
X182499000Y-43942000D03*
%TD*%
%TO.P,REF1b,1*%
%TO.N,Net-(R2-Pad1)*%
X183007000Y-70104000D03*
%TD*%
D12*
%TO.P,SW3,1,1*%
%TO.N,unconnected-(SW3-Pad1)*%
X141859000Y-76582000D03*
%TD*%
%TO.P,SW1,1,1*%
%TO.N,Net-(SW1-Pad1)*%
X141859000Y-71882000D03*
%TD*%
D11*
%TO.P,REF3a,1*%
%TO.N,Net-(SW1-Pad1)*%
X137668000Y-49657000D03*
%TD*%
D12*
%TO.P,SW2,1,1*%
%TO.N,Net-(SW2-Pad1)*%
X141859000Y-81282000D03*
%TD*%
D10*
%TO.P,REF2b,1*%
%TO.N,GND*%
X176149000Y-86741000D03*
%TD*%
D13*
%TO.P,C1,2*%
%TO.N,Net-(R2-Pad1)*%
X147376000Y-51816000D03*
D14*
%TO.P,C1,1*%
%TO.N,Net-(SW2-Pad1)*%
X150876000Y-51816000D03*
%TD*%
D15*
%TO.P,BT1,1,+*%
%TO.N,Net-(SW1-Pad1)*%
X147579000Y-62865000D03*
D16*
%TO.P,BT1,2,-*%
%TO.N,GND*%
X145039000Y-62865000D03*
%TD*%
D17*
%TO.P,D3,1,K*%
%TO.N,Net-(R4-Pad2)*%
X182367000Y-80010000D03*
D18*
%TO.P,D3,2,A*%
%TO.N,Net-(R1-Pad2)*%
X184907000Y-80010000D03*
%TD*%
D19*
%TO.P,U1,1,NULL*%
%TO.N,unconnected-(U1-Pad1)*%
X172964000Y-73924000D03*
D20*
%TO.P,U1,2,-*%
%TO.N,Net-(R2-Pad2)*%
X172964000Y-76464000D03*
%TO.P,U1,3,+*%
%TO.N,Net-(R3-Pad2)*%
X172964000Y-79004000D03*
%TO.P,U1,4,V-*%
%TO.N,GND*%
X172964000Y-81544000D03*
%TO.P,U1,5,NULL*%
%TO.N,unconnected-(U1-Pad5)*%
X165344000Y-81544000D03*
%TO.P,U1,6*%
%TO.N,Net-(R1-Pad1)*%
X165344000Y-79004000D03*
%TO.P,U1,7,V+*%
%TO.N,Net-(SW2-Pad1)*%
X165344000Y-76464000D03*
%TO.P,U1,8,NC*%
%TO.N,unconnected-(U1-Pad8)*%
X165344000Y-73924000D03*
%TD*%
D12*
%TO.P,R6,1*%
%TO.N,Net-(R2-Pad1)*%
X179959000Y-61468000D03*
D21*
%TO.P,R6,2*%
%TO.N,Net-(R1-Pad1)*%
X159639000Y-61468000D03*
%TD*%
D12*
%TO.P,R4,1*%
%TO.N,Net-(R3-Pad2)*%
X194056000Y-64516000D03*
D21*
%TO.P,R4,2*%
%TO.N,Net-(R4-Pad2)*%
X194056000Y-84836000D03*
%TD*%
D22*
%TO.P,D1,1,K*%
%TO.N,Net-(R2-Pad2)*%
X185547000Y-54356000D03*
D23*
%TO.P,D1,2,A*%
%TO.N,Net-(R3-Pad2)*%
X185547000Y-64516000D03*
%TD*%
D12*
%TO.P,R3,1*%
%TO.N,Net-(SW2-Pad1)*%
X159639000Y-51816000D03*
D21*
%TO.P,R3,2*%
%TO.N,Net-(R3-Pad2)*%
X179959000Y-51816000D03*
%TD*%
D12*
%TO.P,R2,1*%
%TO.N,Net-(R2-Pad1)*%
X179959000Y-66040000D03*
D21*
%TO.P,R2,2*%
%TO.N,Net-(R2-Pad2)*%
X159639000Y-66040000D03*
%TD*%
D22*
%TO.P,D2,1,K*%
%TO.N,Net-(R3-Pad2)*%
X189992000Y-64516000D03*
D23*
%TO.P,D2,2,A*%
%TO.N,Net-(R2-Pad2)*%
X189992000Y-54356000D03*
%TD*%
D12*
%TO.P,R1,1*%
%TO.N,Net-(R1-Pad1)*%
X199390000Y-84582000D03*
D21*
%TO.P,R1,2*%
%TO.N,Net-(R1-Pad2)*%
X199390000Y-64262000D03*
%TD*%
D12*
%TO.P,R5,1*%
%TO.N,Net-(R3-Pad2)*%
X179959000Y-56769000D03*
D21*
%TO.P,R5,2*%
%TO.N,Net-(R1-Pad1)*%
X159639000Y-56769000D03*
%TD*%
D24*
%TO.N,*%
X204851000Y-61000000D02*
X204851000Y-63000000D01*
X204851000Y-61000000D02*
X204851000Y-59000000D01*
%TO.N,Net-(SW1-Pad1)*%
X204851000Y-48000000D02*
X204851000Y-52000000D01*
X204851000Y-50000000D02*
X204851000Y-48000000D01*
X143000000Y-42000000D02*
X146000000Y-39000000D01*
X146000000Y-39000000D02*
X189000000Y-39000000D01*
X189000000Y-39000000D02*
X200000000Y-50000000D01*
X200000000Y-50000000D02*
X204851000Y-50000000D01*
%TO.N,*%
X164000000Y-90000000D02*
X164000000Y-91000000D01*
X164000000Y-91000000D02*
X167000000Y-94000000D01*
X167000000Y-94000000D02*
X197000000Y-94000000D01*
X197000000Y-94000000D02*
X203851000Y-87149000D01*
X203851000Y-87149000D02*
X203851000Y-61149000D01*
X203851000Y-61149000D02*
X204000000Y-61000000D01*
X204000000Y-61000000D02*
X204851000Y-61000000D01*
%TO.N,Net-(SW1-Pad1)*%
X137668000Y-49657000D02*
X137668000Y-46332000D01*
%TO.N,Net-(SW2-Pad1)*%
X151402000Y-81282000D02*
X151511000Y-81173000D01*
X151511000Y-81173000D02*
X151511000Y-55372000D01*
X151511000Y-55372000D02*
X155067000Y-51816000D01*
%TO.N,Net-(SW1-Pad1)*%
X139446000Y-49784000D02*
X147579000Y-57917000D01*
X147579000Y-57917000D02*
X147579000Y-62865000D01*
%TO.N,Net-(R2-Pad1)*%
X179959000Y-61468000D02*
X179070000Y-62357000D01*
X179070000Y-62357000D02*
X179070000Y-65151000D01*
X179070000Y-65151000D02*
X179959000Y-66040000D01*
%TO.N,Net-(R3-Pad2)*%
X179959000Y-51816000D02*
X178689000Y-53086000D01*
X179451000Y-56769000D02*
X179959000Y-56769000D01*
X178689000Y-53086000D02*
X178689000Y-56007000D01*
X178689000Y-56007000D02*
X179451000Y-56769000D01*
%TO.N,Net-(R2-Pad2)*%
X174053500Y-69151500D02*
X170561000Y-65659000D01*
X176149000Y-48006000D02*
X185674000Y-48006000D01*
X187706000Y-50038000D02*
X187706000Y-54356000D01*
X170561000Y-53594000D02*
X176149000Y-48006000D01*
X170561000Y-65659000D02*
X170561000Y-53594000D01*
X185674000Y-48006000D02*
X187706000Y-50038000D01*
%TO.N,GND*%
X141224000Y-86614000D02*
X142367000Y-86614000D01*
X176149000Y-84729000D02*
X172964000Y-81544000D01*
X144404000Y-63500000D02*
X145039000Y-62865000D01*
X140271500Y-86677500D02*
X142303500Y-86677500D01*
X137096500Y-67627500D02*
X137096500Y-83502500D01*
X142303500Y-86677500D02*
X142367000Y-86614000D01*
X137795000Y-63500000D02*
X144404000Y-63500000D01*
X137096500Y-83502500D02*
X140271500Y-86677500D01*
X137795000Y-63500000D02*
X137795000Y-66167000D01*
X176149000Y-86741000D02*
X176149000Y-84729000D01*
X142367000Y-86614000D02*
X163830000Y-86614000D01*
%TO.N,Net-(R2-Pad1)*%
X183007000Y-70104000D02*
X183007000Y-69088000D01*
X183007000Y-69088000D02*
X179959000Y-66040000D01*
X147701000Y-43942000D02*
X146431000Y-45212000D01*
X147066000Y-51816000D02*
X147376000Y-51816000D01*
X182499000Y-43942000D02*
X147701000Y-43942000D01*
X146431000Y-51181000D02*
X147066000Y-51816000D01*
X146431000Y-45212000D02*
X146431000Y-51181000D01*
%TO.N,Net-(R2-Pad2)*%
X159639000Y-66040000D02*
X170942000Y-66040000D01*
X189992000Y-54356000D02*
X187706000Y-54356000D01*
X176403000Y-71501000D02*
X176403000Y-75565000D01*
X170942000Y-66040000D02*
X174053500Y-69151500D01*
X175504000Y-76464000D02*
X172964000Y-76464000D01*
X187706000Y-54356000D02*
X185547000Y-54356000D01*
X176403000Y-75565000D02*
X175504000Y-76464000D01*
X174053500Y-69151500D02*
X176403000Y-71501000D01*
%TO.N,Net-(R3-Pad2)*%
X185547000Y-64516000D02*
X189992000Y-64516000D01*
X185547000Y-62357000D02*
X185547000Y-64516000D01*
X194056000Y-69596000D02*
X187960000Y-75692000D01*
X194056000Y-64516000D02*
X189992000Y-64516000D01*
X181102000Y-57912000D02*
X185547000Y-62357000D01*
X194056000Y-64516000D02*
X194056000Y-69596000D01*
X180594000Y-75692000D02*
X177282000Y-79004000D01*
X177282000Y-79004000D02*
X172964000Y-79004000D01*
X187960000Y-75692000D02*
X180594000Y-75692000D01*
X179959000Y-56769000D02*
X181102000Y-57912000D01*
%TO.N,Net-(R4-Pad2)*%
X183896000Y-84836000D02*
X181864000Y-82804000D01*
X181864000Y-82804000D02*
X181864000Y-80513000D01*
X181864000Y-80513000D02*
X182367000Y-80010000D01*
X194056000Y-84836000D02*
X183896000Y-84836000D01*
%TO.N,Net-(R1-Pad2)*%
X199390000Y-64262000D02*
X199390000Y-71882000D01*
X185674000Y-81280000D02*
X185166000Y-80772000D01*
X199390000Y-71882000D02*
X189992000Y-81280000D01*
X185166000Y-80772000D02*
X185166000Y-80259000D01*
X189992000Y-81280000D02*
X185674000Y-81280000D01*
%TO.N,Net-(R1-Pad1)*%
X169164000Y-79121000D02*
X169164000Y-86868000D01*
X155067000Y-68707000D02*
X156591000Y-70231000D01*
X155067000Y-60579000D02*
X155067000Y-68707000D01*
X159639000Y-56769000D02*
X159639000Y-59309000D01*
X169164000Y-86868000D02*
X172228000Y-89932000D01*
X159639000Y-59309000D02*
X159639000Y-61468000D01*
X199390000Y-86868000D02*
X199390000Y-84582000D01*
X169047000Y-79004000D02*
X169164000Y-79121000D01*
X156591000Y-70231000D02*
X168275000Y-70231000D01*
X196326000Y-89932000D02*
X199390000Y-86868000D01*
X169164000Y-71120000D02*
X169164000Y-79121000D01*
X168275000Y-70231000D02*
X169164000Y-71120000D01*
X172228000Y-89932000D02*
X196326000Y-89932000D01*
X156337000Y-59309000D02*
X155067000Y-60579000D01*
X159639000Y-59309000D02*
X156337000Y-59309000D01*
X165344000Y-79004000D02*
X169047000Y-79004000D01*
%TO.N,Net-(SW1-Pad1)*%
X147579000Y-69083000D02*
X147579000Y-62865000D01*
X141859000Y-71882000D02*
X144780000Y-71882000D01*
X144780000Y-71882000D02*
X147579000Y-69083000D01*
%TO.N,Net-(SW2-Pad1)*%
X151402000Y-81282000D02*
X156220000Y-76464000D01*
X154305000Y-51816000D02*
X155067000Y-51816000D01*
X155067000Y-51816000D02*
X159639000Y-51816000D01*
X150876000Y-51816000D02*
X155067000Y-51816000D01*
X156220000Y-76464000D02*
X165344000Y-76464000D01*
X150259000Y-81282000D02*
X151402000Y-81282000D01*
X141859000Y-81282000D02*
X150259000Y-81282000D01*
%TD*%
M02*
